<svg width="229" height="46" viewBox="0 0 229 46" fill="none" xmlns="http://www.w3.org/2000/svg">
<path d="M20.032 34.76L27.776 9.288H39.424L26.752 45H13.248L0.576 9.288H12.288L20.032 34.76ZM60.2865 45.512C56.7878 45.512 53.6305 44.7653 50.8145 43.272C48.0412 41.7787 45.8438 39.6453 44.2225 36.872C42.6438 34.0987 41.8545 30.856 41.8545 27.144C41.8545 23.4747 42.6652 20.2533 44.2865 17.48C45.9078 14.664 48.1265 12.5093 50.9425 11.016C53.7585 9.52266 56.9158 8.776 60.4145 8.776C63.9132 8.776 67.0705 9.52266 69.8865 11.016C72.7025 12.5093 74.9212 14.664 76.5425 17.48C78.1638 20.2533 78.9745 23.4747 78.9745 27.144C78.9745 30.8133 78.1425 34.056 76.4785 36.872C74.8572 39.6453 72.6172 41.7787 69.7585 43.272C66.9425 44.7653 63.7852 45.512 60.2865 45.512ZM60.2865 36.04C62.3772 36.04 64.1478 35.272 65.5985 33.736C67.0918 32.2 67.8385 30.0027 67.8385 27.144C67.8385 24.2853 67.1132 22.088 65.6625 20.552C64.2545 19.016 62.5052 18.248 60.4145 18.248C58.2812 18.248 56.5105 19.016 55.1025 20.552C53.6945 22.0453 52.9905 24.2427 52.9905 27.144C52.9905 30.0027 53.6732 32.2 55.0385 33.736C56.4465 35.272 58.1958 36.04 60.2865 36.04ZM82.6045 27.144C82.6045 23.432 83.3512 20.1893 84.8445 17.416C86.3805 14.6427 88.4925 12.5093 91.1805 11.016C93.9112 9.52266 97.0258 8.776 100.525 8.776C105.005 8.776 108.738 9.94933 111.725 12.296C114.754 14.6427 116.738 17.9493 117.677 22.216H106.029C105.047 19.4853 103.149 18.12 100.333 18.12C98.3272 18.12 96.7272 18.9093 95.5325 20.488C94.3378 22.024 93.7405 24.2427 93.7405 27.144C93.7405 30.0453 94.3378 32.2853 95.5325 33.864C96.7272 35.4 98.3272 36.168 100.333 36.168C103.149 36.168 105.047 34.8027 106.029 32.072H117.677C116.738 36.2533 114.754 39.5387 111.725 41.928C108.695 44.3173 104.962 45.512 100.525 45.512C97.0258 45.512 93.9112 44.7653 91.1805 43.272C88.4925 41.7787 86.3805 39.6453 84.8445 36.872C83.3512 34.0987 82.6045 30.856 82.6045 27.144ZM143.435 35.72V45H137.867C133.899 45 130.805 44.04 128.587 42.12C126.368 40.1573 125.259 36.9787 125.259 32.584V18.376H120.907V9.288H125.259V0.584H136.203V9.288H143.371V18.376H136.203V32.712C136.203 33.7787 136.459 34.5467 136.971 35.016C137.483 35.4853 138.336 35.72 139.531 35.72H143.435ZM147.355 27.08C147.355 23.4107 148.037 20.1893 149.403 17.416C150.811 14.6427 152.709 12.5093 155.099 11.016C157.488 9.52266 160.155 8.776 163.099 8.776C165.616 8.776 167.813 9.288 169.691 10.312C171.611 11.336 173.083 12.68 174.107 14.344V9.288H185.051V45H174.107V39.944C173.04 41.608 171.547 42.952 169.627 43.976C167.749 45 165.552 45.512 163.035 45.512C160.133 45.512 157.488 44.7653 155.099 43.272C152.709 41.736 150.811 39.5813 149.403 36.808C148.037 33.992 147.355 30.7493 147.355 27.08ZM174.107 27.144C174.107 24.4133 173.339 22.2587 171.803 20.68C170.309 19.1013 168.475 18.312 166.299 18.312C164.123 18.312 162.267 19.1013 160.731 20.68C159.237 22.216 158.491 24.3493 158.491 27.08C158.491 29.8107 159.237 31.9867 160.731 33.608C162.267 35.1867 164.123 35.976 166.299 35.976C168.475 35.976 170.309 35.1867 171.803 33.608C173.339 32.0293 174.107 29.8747 174.107 27.144ZM214.728 8.904C218.909 8.904 222.237 10.2693 224.712 13C227.229 15.688 228.488 19.4 228.488 24.136V45H217.608V25.608C217.608 23.2187 216.989 21.3627 215.752 20.04C214.515 18.7173 212.851 18.056 210.76 18.056C208.669 18.056 207.005 18.7173 205.768 20.04C204.531 21.3627 203.912 23.2187 203.912 25.608V45H192.968V9.288H203.912V14.024C205.021 12.4453 206.515 11.208 208.392 10.312C210.269 9.37333 212.381 8.904 214.728 8.904Z" fill="black"/>
</svg>
